<?xml version="1.0" encoding="utf-8"?>
<svg id="Warstwa_1" data-name="Warstwa 1" viewBox="0 0 1023.49 364.56" xmlns="http://www.w3.org/2000/svg">
  <defs>
    <style>
      .cls-1, .cls-2 {
        stroke-width: 0px;
      }

      .cls-2, .cls-3 {
        fill: #fff;
      }

      .cls-4 {
        letter-spacing: -.02em;
      }

      .cls-3 {
        font-family: ProstoOne-Regular, 'Prosto One';
        font-size: 172.48px;
        stroke: #000;
        stroke-miterlimit: 10;
      }
    </style>
  </defs>
  <text class="cls-3" transform="translate(.5 147.11) scale(.95 1)" style="white-space: pre;"><tspan x="0" y="0">CINEMA</tspan></text>
  <g>
    <path class="cls-2" d="M810.92,319.36c-10.15,0-18.42-8.26-18.42-18.42v-139.97c0-3.3.91-6.57,2.63-9.43l.24-.39-.37-.27c-2.71-1.98-4.83-4.66-6.12-7.74l-8-19.07c-1.9-4.53-1.92-9.54-.05-14.09s5.39-8.11,9.92-10.01l178.11-74.72c2.26-.95,4.65-1.43,7.09-1.43,7.46,0,14.13,4.43,17.01,11.28l8,19.07c1.9,4.52,1.92,9.53.05,14.09-1.87,4.56-5.38,8.12-9.91,10.02l-153.23,64.28h166.2c4.91,0,9.53,1.92,13.02,5.4,3.48,3.48,5.4,8.1,5.4,13.02v139.97c0,10.15-8.26,18.42-18.42,18.42h-193.15ZM807.71,300.94c0,1.74,1.47,3.2,3.2,3.2h193.15c.84,0,1.64-.34,2.25-.95.61-.61.95-1.41.95-2.25v-100.88h-199.56v100.88ZM980.59,184.85h26.68v-23.88c0-1.74-1.47-3.2-3.2-3.2h-11.63l-11.85,27.08ZM930.84,184.85h39.04l11.85-27.08h-39.04l-11.85,27.08ZM881.09,184.85h39.04l11.85-27.08h-39.04l-11.85,27.08ZM831.34,184.85h39.04l11.85-27.08h-39.04l-11.85,27.08ZM810.92,157.77c-1.74,0-3.2,1.47-3.2,3.2v23.88h12.92l11.85-27.08h-21.56ZM796.62,113.99c-1.05.44-1.52,1.28-1.71,1.74-.19.46-.44,1.4,0,2.45l8,19.07c.57,1.35,1.91,1.96,2.98,1.96.42,0,.83-.08,1.21-.25l8.9-3.73.45-29.56-19.83,8.32ZM826.32,101.53l-.45,29.56,36.01-15.1.45-29.56-36.01,15.1ZM872.19,82.29l-.45,29.55,36.01-15.1.45-29.56-36.01,15.11ZM918.07,63.04l-.45,29.56,36.01-15.11.45-29.55-36.01,15.1ZM975.94,39.03c-.42,0-.82.08-1.21.25l-10.78,4.52-.45,29.56,21.7-9.1c1.05-.44,1.53-1.28,1.71-1.75.19-.46.44-1.39,0-2.44l-8-19.07c-.57-1.35-1.91-1.96-2.98-1.96Z"/>
    <path class="cls-1" d="M975.94,24.31c7.26,0,13.75,4.31,16.55,10.98l8,19.07c1.85,4.4,1.86,9.27.05,13.71-1.82,4.44-5.24,7.9-9.64,9.74l-150.93,63.32-4.58,1.92h168.69c4.78,0,9.27,1.87,12.66,5.25,3.39,3.39,5.25,7.88,5.25,12.66v139.97c0,9.88-8.04,17.92-17.92,17.92h-193.15c-9.88,0-17.92-8.04-17.92-17.92v-139.97c0-3.21.88-6.39,2.56-9.18l.47-.78-.74-.54c-2.64-1.92-4.7-4.53-5.96-7.53l-8-19.07c-1.85-4.41-1.87-9.28-.05-13.71,1.81-4.43,5.24-7.89,9.65-9.74l178.11-74.72c2.2-.92,4.52-1.39,6.9-1.39M962.99,74.11l1.41-.59,21-8.81c1.22-.51,1.77-1.48,1.98-2.01.22-.53.51-1.61,0-2.83l-8-19.07c-.66-1.56-2.2-2.26-3.44-2.26-.48,0-.96.1-1.4.28l-10.48,4.4-.6.25v.65s-.44,28.46-.44,28.46l-.02,1.53M917.11,93.35l1.41-.59,35-14.68.6-.25v-.65s.44-28.46.44-28.46l.02-1.53-1.41.59-35,14.68-.6.25v.65s-.44,28.47-.44,28.47l-.02,1.53M871.24,112.6l1.41-.59,35-14.68.6-.25v-.65s.44-28.47.44-28.47l.02-1.53-1.41.59-35,14.68-.6.25v.65s-.44,28.46-.44,28.46l-.02,1.53M825.36,131.85l1.41-.59,35-14.68.6-.25v-.65s.44-28.47.44-28.47l.02-1.53-1.41.59-35,14.68-.6.25v.65s-.44,28.46-.44,28.46l-.02,1.53M805.88,139.71c.48,0,.96-.1,1.4-.28l8.6-3.61.6-.25v-.65s.44-28.47.44-28.47l.02-1.53-1.41.59-19.12,8.02c-1.22.51-1.76,1.48-1.98,2.02-.22.53-.51,1.61,0,2.83l8,19.07c.66,1.56,2.2,2.26,3.44,2.26M979.83,185.35h27.94v-24.38c0-2.01-1.7-3.7-3.7-3.7h-11.96l-.26.6-11.41,26.08-.61,1.4M930.08,185.35h40.14l.26-.6,11.41-26.08.61-1.4h-40.14l-.26.6-11.41,26.08-.61,1.4M880.33,185.35h40.14l.26-.6,11.41-26.08.61-1.4h-40.14l-.26.6-11.41,26.08-.61,1.4M830.57,185.35h40.14l.26-.6,11.41-26.08.61-1.4h-40.14l-.26.6-11.41,26.08-.61,1.4M807.21,185.35h13.74l.26-.6,11.41-26.08.61-1.4h-22.33c-2.01,0-3.7,1.7-3.7,3.7v24.38M810.92,304.64h193.15c.98,0,1.9-.39,2.61-1.09.71-.71,1.09-1.63,1.09-2.61v-101.38h-200.56v101.38c0,2.01,1.7,3.7,3.7,3.7M975.94,23.31c-2.51,0-4.97.49-7.29,1.47l-178.11,74.72c-9.62,4.03-14.16,15.14-10.13,24.76l8,19.07c1.36,3.25,3.57,5.96,6.29,7.95-1.7,2.84-2.7,6.15-2.7,9.69v139.97c0,10.43,8.49,18.92,18.92,18.92h193.15c10.43,0,18.92-8.49,18.92-18.92v-139.97c0-10.43-8.49-18.92-18.92-18.92h-163.72l150.93-63.32c4.65-1.95,8.26-5.6,10.18-10.29,1.91-4.68,1.9-9.82-.05-14.47l-8-19.07c-2.96-7.04-9.81-11.59-17.47-11.59h0ZM964.02,72.59l.43-28.46,10.48-4.4c.33-.14.67-.21,1.02-.21.91,0,2.04.51,2.52,1.65l8,19.07c.37.88.16,1.67,0,2.06-.16.39-.56,1.1-1.44,1.47l-21,8.81h0ZM918.14,91.84l.43-28.47,35-14.68-.43,28.46-35,14.68h0ZM872.26,111.09l.43-28.46,35-14.68-.43,28.47-35,14.68h0ZM826.38,130.33l.43-28.46,35-14.68-.43,28.47-35,14.68h0ZM805.88,138.71c-.91,0-2.04-.51-2.52-1.65l-8-19.07c-.37-.88-.16-1.67,0-2.06.16-.39.56-1.1,1.44-1.47l19.12-8.02-.43,28.47-8.6,3.61c-.33.14-.67.21-1.02.21h0ZM981.36,184.35l11.41-26.08h11.3c1.46,0,2.7,1.24,2.7,2.7v23.38h-25.41ZM931.61,184.35l11.41-26.08h37.95l-11.41,26.08h-37.95ZM881.85,184.35l11.41-26.08h37.95l-11.41,26.08h-37.95ZM832.1,184.35l11.41-26.08h37.95l-11.41,26.08h-37.95ZM808.21,184.35v-23.38c0-1.47,1.24-2.7,2.7-2.7h20.8l-11.41,26.08h-12.09ZM810.92,303.64c-1.46,0-2.7-1.24-2.7-2.7v-100.38h198.56v100.38c0,1.46-1.24,2.7-2.7,2.7h-193.15Z"/>
  </g>
  <text class="cls-3" transform="matrix(0.99, 0, 0, 1, 16.910172, 313.747345)" style="white-space: pre;">WORLD</text>
  <g>
    <rect class="cls-2" x="807.14" y="199.81" width="200" height="105"/>
    <path class="cls-1" d="M1006.64,200.31v104h-199v-104h199M1007.64,199.31h-201v106h201v-106h0Z"/>
  </g>
</svg>