<?xml version="1.0" encoding="utf-8"?>
<svg id="Warstwa_1" data-name="Warstwa 1" viewBox="0 0 1022.49 363.56" xmlns="http://www.w3.org/2000/svg">
  <defs>
    <style>
      .cls-1 {
        fill: #000002;
        stroke-width: 0px;
      }

      .cls-2 {
        font-family: ProstoOne-Regular, 'Prosto One';
        font-size: 172.48px;
      }

      .cls-3 {
        letter-spacing: -.02em;
      }
    </style>
  </defs>
  <text class="cls-2" transform="translate(0 146.61) scale(.95 1)" style="white-space: pre;"><tspan x="0" y="0">CINEMA</tspan></text>
  <path class="cls-1" d="M1003.57,141.56h-163.72l150.93-63.32c4.65-1.95,8.26-5.6,10.18-10.29,1.91-4.68,1.9-9.82-.05-14.47l-8-19.07c-2.96-7.04-9.81-11.59-17.47-11.59-2.51,0-4.97.49-7.29,1.47l-178.11,74.72c-9.62,4.03-14.16,15.14-10.13,24.76l8,19.07c1.36,3.25,3.57,5.96,6.29,7.95-1.7,2.84-2.7,6.15-2.7,9.69v139.97c0,10.43,8.49,18.92,18.92,18.92h193.15c10.43,0,18.92-8.49,18.92-18.92v-139.97c0-10.43-8.49-18.92-18.92-18.92ZM1006.27,160.47v23.38h-25.41l11.41-26.08h11.3c1.46,0,2.7,1.24,2.7,2.7ZM810.42,157.77h20.8l-11.41,26.08h-12.09v-23.38c0-1.47,1.24-2.7,2.7-2.7ZM843.01,157.77h37.95l-11.41,26.08h-37.95l11.41-26.08ZM892.76,157.77h37.95l-11.41,26.08h-37.95l11.41-26.08ZM942.52,157.77h37.95l-11.41,26.08h-37.95l11.41-26.08ZM906.76,95.9l-35,14.68.43-28.46,35-14.68-.43,28.47ZM918.07,62.88l35-14.68-.43,28.46-35,14.68.43-28.47ZM860.88,115.15l-35,14.68.43-28.46,35-14.68-.43,28.47ZM974.43,39.23c.33-.14.67-.21,1.01-.21.91,0,2.04.51,2.52,1.65l8,19.07c.37.88.16,1.67,0,2.06-.16.39-.56,1.1-1.44,1.47l-21,8.81.43-28.46,10.48-4.4ZM794.87,115.43c.16-.39.56-1.1,1.44-1.47l19.12-8.02-.43,28.47-8.6,3.61c-.33.14-.67.21-1.01.21-.91,0-2.04-.51-2.52-1.65l-8-19.07c-.37-.88-.16-1.67,0-2.06ZM1003.57,303.14h-193.15c-1.46,0-2.7-1.24-2.7-2.7v-100.38h198.56v100.38c0,1.46-1.24,2.7-2.7,2.7Z"/>
  <text class="cls-2" transform="matrix(0.99, 0, 0, 1, 16.968647, 313.246796)" style="white-space: pre;">WORLD</text>
  <rect class="cls-1" x="805.873" y="199.81" width="203.668" height="105.834" style=""/>
</svg>