<?xml version="1.0" encoding="utf-8"?>
<!-- Generator: Adobe Illustrator 28.1.0, SVG Export Plug-In . SVG Version: 6.00 Build 0)  -->
<svg version="1.1" id="Warstwa_1" xmlns="http://www.w3.org/2000/svg" xmlns:xlink="http://www.w3.org/1999/xlink" x="0px" y="0px"
	 viewBox="0 0 424 424" style="enable-background:new 0 0 424 424;" xml:space="preserve">
<style type="text/css">
	.st0{fill:#FFFFFF;}
</style>
<g>
	<path class="st0" d="M83.6,423c-14.6,0-26.5-11.9-26.5-26.5V196.9c0-4.8,1.3-9.4,3.8-13.6l0.2-0.4l-0.4-0.3
		c-3.9-2.9-7-6.7-8.8-11.1l-11.4-27.2c-2.7-6.5-2.8-13.7-0.1-20.3s7.7-11.7,14.3-14.4L308.7,3c3.2-1.4,6.7-2,10.2-2
		c10.7,0,20.3,6.4,24.5,16.2l11.4,27.2c2.7,6.5,2.8,13.7,0.1,20.3c-2.7,6.6-7.7,11.7-14.2,14.4l-217.6,91.3h236
		c7.1,0,13.7,2.8,18.7,7.8c5,5,7.8,11.6,7.8,18.7v199.7c0,14.6-11.9,26.5-26.5,26.5L83.6,423L83.6,423z M79.2,396.5
		c0,2.4,2,4.4,4.4,4.4h275.5c1.1,0,2.2-0.5,3.1-1.3c0.8-0.8,1.3-1.9,1.3-3.1V252.8H79.2V396.5L79.2,396.5z M325.9,230.7h37.5v-33.9
		c0-2.4-2-4.4-4.4-4.4h-16.5L325.9,230.7L325.9,230.7z M254.9,230.7h55.2l16.7-38.2h-55.2L254.9,230.7L254.9,230.7z M184,230.7h55.2
		l16.7-38.2h-55.2L184,230.7L184,230.7z M113,230.7h55.2l16.7-38.2h-55.2L113,230.7L113,230.7z M83.6,192.5c-2.4,0-4.3,2-4.3,4.4
		v33.8h18.1l16.7-38.2L83.6,192.5L83.6,192.5z M63.2,130c-1.4,0.6-2.1,1.7-2.3,2.4c-0.3,0.6-0.6,1.9,0,3.3l11.4,27.2
		c0.8,1.8,2.6,2.7,4.1,2.7c0.6,0,1.1-0.1,1.6-0.3l12.6-5.3l0.6-41.7L63.2,130L63.2,130z M105.7,112.2l-0.6,41.7l50.9-21.4l0.6-41.7
		C156.7,90.8,105.7,112.2,105.7,112.2z M171.2,84.8l-0.6,41.7l50.9-21.4l0.6-41.7L171.2,84.8L171.2,84.8z M236.6,57.3L236,99
		l50.9-21.4l0.6-41.7L236.6,57.3z M319,23.1c-0.6,0-1.1,0.1-1.6,0.3l-15.2,6.4l-0.6,41.7l30.7-12.9c1.4-0.6,2.1-1.8,2.3-2.4
		c0.3-0.6,0.6-1.9,0-3.3L323,25.8C322.2,24,320.4,23.1,319,23.1L319,23.1z"/>
	<path d="M319,1.5c10.5,0,19.9,6.2,24,15.9l11.4,27.2c2.7,6.4,2.7,13.4,0.1,19.9s-7.6,11.4-14,14.1l-215.3,90.3l-4.6,1.9h238.5
		c6.9,0,13.5,2.7,18.4,7.6c4.9,4.9,7.6,11.4,7.6,18.4v199.7c0,14.3-11.7,26-26,26H83.6c-14.3,0-26-11.7-26-26V196.8
		c0-4.7,1.3-9.3,3.7-13.3l0.5-0.8l-0.7-0.5c-3.8-2.8-6.8-6.6-8.6-10.9L41,144.1c-2.7-6.4-2.7-13.4-0.1-19.9
		c2.6-6.4,7.6-11.4,14-14.1L308.9,3.5C312.1,2.2,315.5,1.5,319,1.5 M300.9,72.3l1.4-0.6l30-12.6c1.6-0.7,2.3-2,2.6-2.6
		c0.3-0.7,0.7-2.1,0-3.7l-11.4-27.2c-0.9-2-2.9-3-4.5-3c-0.6,0-1.2,0.1-1.8,0.4l-15,6.3l-0.6,0.2v0.6l-0.6,40.6L300.9,72.3
		 M235.5,99.8l1.4-0.6l49.9-21l0.6-0.2v-0.7l0.6-40.6l0-1.5l-1.4,0.6l-49.9,20.9l-0.6,0.2v0.7l-0.6,40.6L235.5,99.8 M170,127.2
		l1.4-0.6l49.9-20.9l0.6-0.2v-0.7l0.6-40.6l0-1.5l-1.4,0.6l-49.9,21l-0.6,0.2v0.7l-0.6,40.6L170,127.2 M104.6,154.7l1.4-0.6
		l49.9-20.9l0.6-0.2v-0.6l0.6-40.6l0-1.5l-1.4,0.6l-49.9,20.9l-0.6,0.2v0.7l-0.6,40.6L104.6,154.7 M76.4,166.1
		c0.6,0,1.2-0.1,1.8-0.4l12.3-5.1l0.6-0.2v-0.6l0.6-40.6l0-1.5l-1.4,0.6L63,129.6c-1.6,0.7-2.3,1.9-2.6,2.6c-0.3,0.7-0.7,2.1,0,3.7
		l11.4,27.2C72.7,165.2,74.7,166.1,76.4,166.1 M325.2,231.2h38.8v-34.4c0-2.6-2.2-4.9-4.9-4.9h-16.8l-0.3,0.6l-16.3,37.2
		L325.2,231.2 M254.2,231.2h56.3l0.3-0.6l16.3-37.2l0.6-1.4h-56.3l-0.3,0.6l-16.3,37.2L254.2,231.2 M183.2,231.2h56.3l0.3-0.6
		l16.3-37.2l0.6-1.4h-56.3l-0.3,0.6l-16.3,37.2L183.2,231.2 M112.2,231.2h56.3l0.3-0.6l16.3-37.2l0.6-1.4h-56.3l-0.3,0.6l-16.3,37.2
		L112.2,231.2 M78.7,231.2h18.9l0.3-0.6l16.3-37.2l0.6-1.4H83.6c-2.6,0-4.8,2.2-4.8,4.9L78.7,231.2 M83.6,401.4h275.5
		c1.3,0,2.5-0.5,3.4-1.4c0.9-0.9,1.4-2.1,1.4-3.4V252.3H78.7v144.2C78.7,399.1,80.9,401.4,83.6,401.4 M319,0.5
		c-3.6,0-7.1,0.7-10.4,2.1L54.5,109.2c-13.7,5.8-20.2,21.6-14.5,35.3l11.4,27.2c2,4.6,5.1,8.5,9,11.3c-2.4,4.1-3.9,8.8-3.9,13.8
		v199.7c0,14.9,12.1,27,27,27h275.5c14.9,0,27-12.1,27-27V196.9c0-14.9-12.1-27-27-27H125.5l215.3-90.3c6.6-2.8,11.8-8,14.5-14.7
		c2.7-6.7,2.7-14-0.1-20.7L343.9,17C339.6,7,329.9,0.5,319,0.5L319,0.5L319,0.5z M301.9,70.8l0.6-40.6l15-6.3c0.5-0.2,1-0.3,1.5-0.3
		c1.3,0,2.9,0.7,3.6,2.4L334,53.2c0.5,1.3,0.2,2.4,0,2.9c-0.2,0.6-0.8,1.6-2.1,2.1L301.9,70.8L301.9,70.8L301.9,70.8z M236.5,98.2
		l0.6-40.6L287,36.7l-0.6,40.6L236.5,98.2L236.5,98.2z M171.1,125.7l0.6-40.6l49.9-21l-0.6,40.6L171.1,125.7L171.1,125.7
		L171.1,125.7z M105.6,153.2l0.6-40.6l49.9-20.9l-0.6,40.6L105.6,153.2L105.6,153.2z M76.4,165.1c-1.3,0-2.9-0.7-3.6-2.4l-11.4-27.2
		c-0.5-1.3-0.2-2.4,0-2.9s0.8-1.6,2.1-2.1l27.3-11.4l-0.6,40.6l-12.3,5.1C77.3,165,76.9,165.1,76.4,165.1L76.4,165.1L76.4,165.1z
		 M326.7,230.2L343,193h16.1c2.1,0,3.9,1.8,3.9,3.9v33.4L326.7,230.2L326.7,230.2z M255.7,230.2L272,193h54.1l-16.3,37.2H255.7
		L255.7,230.2z M184.7,230.2L201,193h54.1l-16.3,37.2H184.7z M113.8,230.2l16.3-37.2h54.1l-16.3,37.2H113.8z M79.7,230.2v-33.4
		c0-2.1,1.8-3.9,3.9-3.9h29.7l-16.3,37.2L79.7,230.2L79.7,230.2z M83.6,400.4c-2.1,0-3.8-1.8-3.8-3.9V253.3h283.2v143.2
		c0,2.1-1.8,3.9-3.9,3.9H83.6z"/>
</g>
<g>
	<rect x="78" y="252.1" class="st0" width="285.7" height="150.2"/>
	<path d="M363.2,252.6v149.2H78.5V252.6L363.2,252.6 M364.2,251.6H77.5v151.2h286.7V251.6L364.2,251.6L364.2,251.6z"/>
</g>
</svg>
